<?xml version="1.0" encoding="UTF-8"?>
<!DOCTYPE svg PUBLIC "-//W3C//DTD SVG 1.1//EN" "http://www.w3.org/Graphics/SVG/1.1/DTD/svg11.dtd">
<!-- Creator: CorelDRAW 2017 -->
<svg xmlns="http://www.w3.org/2000/svg" xml:space="preserve" width="5in" height="5in" version="1.1" style="shape-rendering:geometricPrecision; text-rendering:geometricPrecision; image-rendering:optimizeQuality; fill-rule:evenodd; clip-rule:evenodd"
viewBox="0 0 5000 5000"
 xmlns:xlink="http://www.w3.org/1999/xlink">
 <defs>
  <style type="text/css">
   <![CDATA[
    .fil1 {fill:#2966AF}
    .fil0 {fill:#2C65AE}
   ]]>
  </style>
 </defs>
 <g id="Layer_x0020_1">
  <metadata id="CorelCorpID_0Corel-Layer"/>
  <path class="fil0" d="M2001 2600c-133,70 -283,87 -434,85 -13,0 -14,26 -7,37 145,84 385,-4 525,-70 24,-11 42,19 30,45 -67,152 -393,240 -550,217 -123,-26 -211,-83 -258,-171 -32,-60 -33,-111 -29,-178 3,-50 14,-95 36,-140 10,-21 24,-50 37,-69 390,-590 1275,-86 650,245zm-389 -214c20,-26 45,-47 68,-64 23,-16 43,-27 66,-37 23,-9 49,-17 74,-17 25,0 49,9 66,20 17,11 27,23 34,36 6,13 9,25 9,38 0,13 -3,26 -9,38 -7,12 -17,22 -37,34 -20,12 -51,26 -80,37 -29,11 -58,20 -87,27 -30,7 -60,12 -83,15 -23,2 -37,2 -48,-6 -11,-7 -17,-22 -13,-44 4,-22 20,-51 40,-77z"/>
  <g id="_2486253338096">
   <image x="1275" y="2346" width="852" height="567" xlink:href="Untitled-1_Images\Untitled-1_ImgID1.png"/>
  </g>
  <g id="_2486253337552">
   <image x="1432" y="2083" width="687" height="345" xlink:href="Untitled-1_Images\Untitled-1_ImgID2.png"/>
  </g>
  <g id="_2486253336752">
   <image x="1341" y="2149" width="877" height="575" xlink:href="Untitled-1_Images\Untitled-1_ImgID3.png"/>
  </g>
  <path class="fil1" d="M2699 2861c131,0 222,-49 275,-102l-26 -26c-14,-14 -27,-27 -39,-38 -10,-10 -19,-19 -27,-27 -8,-8 -16,-15 -23,-22 -12,-12 -23,-22 -32,-31l-4 -4c-21,19 -47,33 -78,39 -17,5 -34,7 -52,7 -105,0 -189,-82 -189,-184 0,-102 85,-184 189,-184 17,0 34,2 49,6 33,5 61,19 83,39l3 -3c9,-9 20,-19 32,-31 7,-7 14,-14 23,-22 8,-8 17,-17 27,-27 12,-11 25,-24 39,-38l27 -26c-53,-54 -144,-102 -275,-102 -232,0 -405,157 -405,388 0,233 173,390 405,390z"/>
  <path class="fil0" d="M3450 2861c131,0 222,-49 275,-102l-26 -26c-14,-14 -27,-27 -39,-38 -10,-10 -19,-19 -27,-27 -8,-8 -16,-15 -23,-22 -12,-12 -23,-22 -32,-31l-4 -4c-21,19 -47,33 -78,39 -17,5 -34,7 -52,7 -105,0 -189,-82 -189,-184 0,-102 85,-184 189,-184 17,0 34,2 49,6 33,5 61,19 83,39l3 -3c9,-9 20,-19 32,-31 7,-7 14,-14 23,-22 8,-8 17,-17 27,-27 12,-11 25,-24 39,-38l27 -26c-53,-54 -144,-102 -275,-102 -232,0 -405,157 -405,388 0,233 173,390 405,390z"/>
 </g>
</svg>
